
<!-- Svg Vector Icons : http://www.sfont.cn -->

<svg version="1.1" xmlns="http://www.w3.org/2000/svg" xmlns:xlink="http://www.w3.org/1999/xlink" x="0px" y="0px" viewBox="0 0 1000 1000" enable-background="new 0 0 1000 1000" xml:space="preserve">

<g><g transform="translate(0.000000,512.000000) scale(0.100000,-0.100000)"><path d="M3163.4,5008.3C2003,4906.6,940.5,4172.1,436.1,3123c-872.6-1820.1,19.2-3977.7,1919.8-4649c412.3-145.8,914.8-212.9,1338.7-178.4c677,53.7,1215.9,251.2,1760.6,642.5c97.8,69,184.1,126.6,191.8,126.6c9.6,0,186-170.7,397-381.7l379.8-379.8l-67.1-88.2c-86.3-113.2-117-207.1-117-349.1c2-230.1-21.1-203.3,1164.2-1382.8c899.5-897.6,1097-1083.6,1192.9-1133.5c303-157.3,638.7-172.6,891.8-44.1c339.5,172.6,489.1,575.4,372.1,997.3c-72.9,258.9-78.6,264.7-1223.6,1413.5C7457.5-1098.3,7484.4-1121.3,7254.2-1119.4c-141.9,0-235.9-30.7-349-117l-88.2-67.1l-379.8,379.8c-211,211-381.7,389.3-381.7,397c0,9.6,51.8,88.2,115.1,174.5c443,609.9,654,1246.6,655.9,1986.9c1.9,352.9-19.2,538.9-99.8,855.4c-224.4,888-824.7,1662.8-1639.8,2115.4C4521.2,4920.1,3819.3,5065.8,3163.4,5008.3z M3934.4,4174c337.5-65.2,671.3-201.4,970.5-400.8c193.7-126.6,561.9-498.7,688.5-690.4c289.6-443,429.6-903.3,429.6-1428.8c0-521.7-140-987.7-431.5-1428.8c-126.6-193.7-496.7-563.8-686.6-690.4c-448.8-297.3-911-437.3-1438.4-437.3c-680.8,1.9-1281.1,241.6-1762.5,705.8c-406.6,393.2-654,849.6-761.4,1402c-44.1,226.3-44.1,648.2-1.9,884.2c69,377.8,230.1,759.5,445,1060.6c130.4,178.4,429.6,475.6,608,602.2c351,247.4,795.9,408.5,1271.6,460.3C3395.4,4225.8,3771.3,4204.7,3934.4,4174z"/><path d="M3222.8,3782.7c-324.1-40.3-669.3-166.9-928.3-335.6c-182.2-118.9-502.5-439.2-621.4-621.4c-257-393.2-385.5-914.8-337.6-1371.3c34.5-314.5,128.5-619.5,264.7-855.4c59.4-103.6,237.8-349.1,247.4-339.5c3.8,1.9-11.5,61.4-32.6,128.5c-157.3,506.3-109.3,1127.7,126.6,1643.6c220.6,477.5,669.3,926.3,1146.9,1146.9c515.9,235.9,1137.3,283.8,1643.6,126.6c67.1-21.1,126.6-36.4,128.5-32.6c3.8,3.8-51.8,51.8-124.7,105.5c-245.5,180.3-594.5,331.8-888,383.6C3679.3,3790.4,3374.3,3801.9,3222.8,3782.7z"/></g></g>
</svg>